<?xml version="1.0" encoding="utf-8"?>
<!-- Generator: Adobe Illustrator 22.0.0, SVG Export Plug-In . SVG Version: 6.00 Build 0)  -->
<svg version="1.1" id="icons" xmlns="http://www.w3.org/2000/svg" xmlns:xlink="http://www.w3.org/1999/xlink" x="0px" y="0px"
	 viewBox="0 0 440.7 85.2" style="enable-background:new 0 0 440.7 85.2;" xml:space="preserve">
<style type="text/css">
	.st0{fill:#637079;}
	.st1{font-family:'MyriadPro-Regular';}
	.st2{font-size:15.07px;}
</style>
<title>Monitor ports_bottom_11</title>
<text transform="matrix(1 0 0 1 2.91 63.4)" className="st0 st1 st2">HDMI</text>
<text transform="matrix(1 0 0 1 66.06 63.12)" className="st0 st1 st2">Displ</text>
<text transform="matrix(1 0 0 1 97.71 63.12)" className="st0 st1 st2">a</text>
<text transform="matrix(1 0 0 1 104.85 63.12)" className="st0 st1 st2">y </text>
<text transform="matrix(1 0 0 1 115.14 63.12)" className="st0 st1 st2">P</text>
<text transform="matrix(1 0 0 1 122.78 63.12)" className="st0 st1 st2">o</text>
<text transform="matrix(1 0 0 1 131.05 63.12)" className="st0 st1 st2">r</text>
<text transform="matrix(1 0 0 1 136.34 63.12)" className="st0 st1 st2">t</text>
<text transform="matrix(1 0 0 1 181.67 65.3)" className="st0 st1 st2">DVI</text>
<text transform="matrix(1 0 0 1 264.01 65.5299)" className="st0 st1 st2">VGA</text>
<text transform="matrix(1 0 0 1 341.02 65.15)" className="st0 st1 st2">USB</text>
<text transform="matrix(1 0 0 1 406.13 63.38)" className="st0 st1 st2">W</text>
<text transform="matrix(1 0 0 1 418.63 63.38)" className="st0 st1 st2">i-</text>
<text transform="matrix(1 0 0 1 426.78 63.38)" className="st0 st1 st2">F</text>
<text transform="matrix(1 0 0 1 433.73 63.38)" className="st0 st1 st2">i</text>
<path className="st0" d="M38.3,17.9c0.8,0,1.6,0.3,2.2,0.9c0.6,0.5,0.9,1.3,0.9,2.1v4c0,1.8,0,3.5-2.7,4.2l-2.3,2.2
	c-1.5,1.3-1.5,1.3-3.4,1.4s-3.6,0-5.3,0l0,0c-6.3,0-13,0.2-19.2,0c-1.8-0.1-1.9-0.1-3.4-1.4l-2.3-2.2C0,28.4,0,26.7,0,24.9v-4
	c0-0.8,0.3-1.5,0.9-2.1s1.4-0.9,2.2-0.9H38.3z M3.1,18.9c-0.5,0-1,0.2-1.4,0.6s-0.6,0.9-0.6,1.4v4c0,1.4,0,2.8,2.1,3.3h0.2l2.5,2.4
	c1.1,1,1.1,1,2.6,1.1h24.4c1.5-0.1,1.5-0.1,2.7-1.1l2.5-2.4h0.2c2.1-0.5,2.1-1.8,2.1-3.3v-4c0-0.5-0.2-1-0.6-1.4
	c-0.4-0.4-0.9-0.6-1.4-0.6L3.1,18.9L3.1,18.9z"/>
<path className="st0" d="M34.7,23.8H7c-0.1,0-0.2,0.1-0.3,0.2v2c0,0.1,0.1,0.3,0.3,0.3h27.7c0.1,0,0.3-0.1,0.3-0.2V26v-2
	C35,23.9,34.8,23.8,34.7,23.8z"/>
<path className="st0" d="M126.2,20.1c-0.4-0.3-0.9-0.5-1.4-0.5H87.4c-0.4,0-0.8,0.1-1.2,0.3c-0.4,0.2-0.8,0.4-1.1,0.7L81.5,24
	c-0.3,0.3-0.5,0.6-0.7,1s-0.3,0.8-0.3,1.2v6.4c0,0.5,0.2,1,0.6,1.3s0.9,0.5,1.4,0.5h42.2c0.5,0,1-0.2,1.4-0.5s0.6-0.8,0.6-1.3V21.4
	C126.7,20.9,126.5,20.5,126.2,20.1z M125.6,32.5c0,0.2-0.1,0.4-0.2,0.5c-0.2,0.1-0.4,0.2-0.6,0.2H82.6c-0.2,0-0.4-0.1-0.6-0.2
	c-0.2-0.1-0.2-0.3-0.2-0.5v-6.4c0-0.3,0.1-0.5,0.2-0.8s0.3-0.5,0.5-0.7l3.6-3.3c0.2-0.2,0.4-0.4,0.7-0.5c0.2-0.1,0.5-0.2,0.8-0.2
	H125c0.2,0,0.4,0.1,0.6,0.2c0.1,0.1,0.2,0.3,0.2,0.5L125.6,32.5z"/>
<path className="st0" d="M88.4,28.5H119c0.2,0,0.3-0.1,0.3-0.3l0,0v-1.8c0-0.2-0.1-0.3-0.3-0.3l0,0H88.4c-0.2,0-0.3,0.1-0.3,0.3l0,0v1.8
	C88.1,28.4,88.2,28.5,88.4,28.5L88.4,28.5z"/>
<path className="st0" d="M370.1,23.1c-0.7-0.5-1.4-1.1-2-1.8h-28.9c-0.6,0.7-1.3,1.3-2,1.8c-0.5,0.5-0.8,1.2-0.8,1.9v9.4
	c0,0.7,0.3,1.4,0.8,1.9s1.2,0.8,2-0.2h28.9c0.8,1,1.5,0.7,2,0.2s0.8-1.2,0.8-1.9V25C371,24.3,370.6,23.6,370.1,23.1z M369.3,34.5
	c0,0.3-0.1,0.6-0.4,0.8c-0.2,0.2-0.5,0.3-0.9-0.7h-28.9c-0.3,1-0.6,0.9-0.9,0.7c-0.2-0.2-0.3-0.5-0.4-0.8V25c0-0.3,0.1-0.6,0.4-0.8
	c0.4-0.3,0.7-0.8,0.9-1.3H368c0.1,0.5,0.4,1,0.9,1.4c0.2,0.2,0.3,0.5,0.4,0.8V34.5z"/>
<rect x="340.6" y="28.6" className="st0" width="26.2" height="3.9"/>
<path className="st0" d="M256.4,33.4l1.7-9.1c0.5-2.5,2.1-4.6,4.6-4.6h29.9c2.5,0,4.1,2.1,4.6,4.6l1.8,9.1c0.5,2.5-2.1,4.6-4.6,4.6H261
	C258.5,38,255.9,35.9,256.4,33.4z M264.3,35.9c0.8,0,1.4-0.6,1.4-1.5c0-0.8-0.6-1.4-1.5-1.4s-1.4,0.6-1.4,1.5l0,0
	C262.8,35.3,263.5,36,264.3,35.9C264.3,36,264.3,36,264.3,35.9L264.3,35.9z M270.9,35.9c0.8,0,1.5-0.6,1.5-1.4
	c0-0.8-0.6-1.5-1.4-1.5s-1.5,0.6-1.5,1.4l0,0C269.4,35.3,270,36,270.9,35.9C270.8,36,270.8,36,270.9,35.9L270.9,35.9z M277.4,35.9
	c0.8,0,1.5-0.6,1.5-1.4s-0.6-1.5-1.4-1.5s-1.5,0.6-1.5,1.4c0,0,0,0,0,0.1C276,35.3,276.6,36,277.4,35.9
	C277.4,36,277.4,36,277.4,35.9L277.4,35.9z M283.9,35.9c0.8,0,1.4-0.6,1.4-1.5c0-0.8-0.6-1.4-1.5-1.4s-1.4,0.6-1.4,1.5l0,0
	C282.5,35.3,283.1,36,283.9,35.9C283.9,36,283.9,36,283.9,35.9L283.9,35.9z M290.5,35.9c0.8-0.1,1.4-0.8,1.3-1.6
	c-0.1-0.7-0.6-1.3-1.3-1.3c-0.8-0.1-1.5,0.5-1.6,1.3s0.5,1.5,1.3,1.6C290.3,36,290.4,36,290.5,35.9z M264.3,24.9
	c0.8,0,1.4-0.6,1.4-1.5c0-0.8-0.6-1.4-1.5-1.4c-0.8,0-1.4,0.6-1.4,1.5C262.9,24.2,263.5,24.9,264.3,24.9L264.3,24.9z M270.9,24.9
	c0.8,0,1.5-0.6,1.5-1.4S271.8,22,271,22s-1.5,0.6-1.5,1.4l0,0C269.4,24.2,270.1,24.9,270.9,24.9z M277.4,24.9c0.8,0,1.5-0.6,1.5-1.4
	s-0.6-1.5-1.4-1.5s-1.5,0.6-1.5,1.4c0,0,0,0,0,0.1C276,24.2,276.6,24.8,277.4,24.9z M283.9,24.9c0.8,0,1.4-0.6,1.4-1.5
	c0-0.8-0.6-1.4-1.5-1.4c-0.8,0-1.4,0.6-1.4,1.5C282.5,24.2,283.1,24.9,283.9,24.9L283.9,24.9z M290.5,24.9c0.8,0,1.4-0.7,1.4-1.5
	s-0.7-1.4-1.5-1.4s-1.4,0.7-1.4,1.4C289,24.2,289.6,24.9,290.5,24.9C290.4,24.9,290.5,24.9,290.5,24.9z M267.6,30.4
	c0.8,0,1.4-0.6,1.4-1.5c0-0.8-0.6-1.4-1.5-1.4c-0.8,0-1.4,0.6-1.4,1.5l0,0C266.2,29.8,266.8,30.4,267.6,30.4L267.6,30.4z
	 M274.1,30.4c0.8,0,1.5-0.6,1.5-1.4s-0.6-1.5-1.4-1.5s-1.5,0.6-1.5,1.4l0,0C272.7,29.8,273.3,30.4,274.1,30.4L274.1,30.4z
	 M280.7,30.4c0.8,0,1.5-0.6,1.5-1.4s-0.6-1.5-1.4-1.5s-1.5,0.6-1.5,1.4l0,0C279.2,29.8,279.9,30.4,280.7,30.4L280.7,30.4z
	 M287.2,30.4c0.8,0,1.5-0.6,1.5-1.4s-0.6-1.5-1.4-1.5s-1.5,0.6-1.5,1.4l0,0C285.8,29.8,286.4,30.4,287.2,30.4L287.2,30.4z
	 M293.8,30.4c0.8,0,1.4-0.6,1.4-1.5c0-0.8-0.6-1.4-1.5-1.4c-0.8,0-1.4,0.6-1.4,1.5l0,0C292.3,29.8,293,30.4,293.8,30.4L293.8,30.4z"
	/>
<path className="st0" d="M213.9,36h-42.5c-3.1,0-5.7-2.5-5.7-5.7v-6.4c0-2.3,1.9-4.2,4.2-4.2h45.4c2.3,0,4.2,1.9,4.2,4.2v6.4
	C219.6,33.5,217,36,213.9,36z M170,21.1c-1.6,0-2.8,1.3-2.8,2.8l0,0v6.4c0,2.4,1.9,4.3,4.3,4.3H214c2.4,0,4.3-1.9,4.3-4.3v-6.4
	c0-1.6-1.3-2.8-2.8-2.8H170z"/>
<path className="st0" d="M182.6,30.3h3.3v3.3h-3.3V30.3z M182.6,22.2h3.3v3.3h-3.3V22.2z M211.7,22.2h3.3v3.3h-3.3V22.2z M207.6,22.2
	h3.3v3.3h-3.3V22.2z M203.4,22.2h3.3v3.3h-3.3V22.2z M199.3,22.2h3.3v3.3h-3.3V22.2z M195.1,22.2h3.3v3.3h-3.3V22.2z M191,22.2h3.3
	v3.3H191V22.2L191,22.2z M186.8,22.2h3.3v3.3h-3.3V22.2z M182.6,26.2h3.3v3.3h-3.3V26.2z M211.7,26.2h3.3v3.3h-3.3V26.2L211.7,26.2z
	 M207.6,26.2h3.3v3.3h-3.3V26.2z M203.4,26.2h3.3v3.3h-3.3V26.2z M199.3,26.2h3.3v3.3h-3.3V26.2z M195.1,26.2h3.3v3.3h-3.3V26.2
	L195.1,26.2z M191,26.2h3.3v3.3H191V26.2L191,26.2z M186.8,26.2h3.3v3.3h-3.3V26.2z M211.7,30.3h3.3v3.3h-3.3V30.3L211.7,30.3z
	 M207.6,30.3h3.3v3.3h-3.3V30.3z M203.4,30.3h3.3v3.3h-3.3V30.3z M199.3,30.3h3.3v3.3h-3.3V30.3z M195.1,30.3h3.3v3.3h-3.3V30.3
	L195.1,30.3z M191,30.3h3.3v3.3H191V30.3L191,30.3z M186.8,30.3h3.3v3.3h-3.3V30.3z"/>
<rect x="170.3" y="27.1" className="st0" width="8.1" height="0.9"/>
<path className="st0" d="M421.7,38.4c-2.1,0-3.8,1.7-3.8,3.8s1.7,3.8,3.8,3.8c2.1,0,3.8-1.7,3.8-3.8l0,0
	C425.5,40.1,423.8,38.4,421.7,38.4z"/>
<path className="st0" d="M421.7,31c-3,0-5.8,1.2-7.9,3.3c-0.5,0.5-0.5,1.3,0,1.8s1.3,0.5,1.8,0c3.4-3.4,8.9-3.5,12.3-0.1l0.1,0.1
	c0.2,0.2,0.6,0.4,0.9,0.4s0.6-0.1,0.9-0.3c0.5-0.5,0.5-1.3,0-1.8C427.5,32.2,424.7,31,421.7,31z"/>
<path className="st0" d="M421.7,23.5c-5,0-9.7,1.9-13.2,5.5c-0.5,0.5-0.5,1.3,0,1.8s1.3,0.5,1.8,0l0,0c6.3-6.4,16.5-6.4,22.9-0.1
	l0.1,0.1c0.2,0.2,0.5,0.4,0.9,0.4c0.3,0,0.6-0.1,0.9-0.4c0.5-0.5,0.5-1.3,0-1.8C431.4,25.5,426.7,23.5,421.7,23.5z"/>
<path className="st0" d="M440.3,23.8c-10.2-10.3-26.7-10.4-37-0.2c-0.1,0.1-0.1,0.1-0.2,0.2c-0.5,0.5-0.5,1.3,0,1.8s1.3,0.5,1.8,0l0,0
	c9.2-9.3,24.2-9.4,33.5-0.2c0.1,0.1,0.1,0.1,0.2,0.2c0.2,0.2,0.5,0.4,0.9,0.4c0.3,0,0.6-0.1,0.9-0.4
	C440.8,25.1,440.8,24.3,440.3,23.8L440.3,23.8z"/>
</svg>
